Coordinates
version=1
nRows=12
nColumns=24
inDegrees=yes

Units are S.I. units (second, meters, Newtons, ...)
Angles are in degrees.

endheader
time	pelvis_tilt	pelvis_list	pelvis_rotation	pelvis_tx	pelvis_ty	pelvis_tz	hip_flexion_r	hip_adduction_r	hip_rotation_r	knee_angle_r	ankle_angle_r	subtalar_angle_r	mtp_angle_r	hip_flexion_l	hip_adduction_l	hip_rotation_l	knee_angle_l	ankle_angle_l	subtalar_angle_l	mtp_angle_l	lumbar_extension	lumbar_bending	lumbar_rotation
      4.33000000	    -18.87378310	     11.14338699	     -7.40630669	     -0.78845114	     -0.04144175	     -0.28915712	     19.74875977	     -9.02137934	      2.54179346	    -61.48887626	    -36.74582787	    -20.06646982	     -4.20955243	     42.17272975	     12.54691645	      1.71451978	    -29.44294206	     17.51975417	     -0.10589693	    -78.67778627	     14.62556515	     -8.79908058	      8.75184952
      4.33500000	    -18.82005840	     11.19188102	     -7.42909827	     -0.78086518	     -0.04004896	     -0.28920217	     20.88628261	     -8.72362627	      2.92028196	    -62.78330671	    -34.51349678	    -21.04238828	     -7.52207607	     41.28296991	     12.69044381	      1.72440428	    -28.97298382	     18.11929852	      0.07534257	    -79.27037172	     14.63859955	     -8.79350736	      8.61201678
      4.34000000	    -18.79175812	     11.21281868	     -7.43794113	     -0.77328056	     -0.03862551	     -0.28921248	     22.01131087	     -8.38131892	      3.28679096	    -63.93254550	    -32.32426825	    -21.87787510	    -10.63060811	     40.38856712	     12.81702802	      1.79076385	    -28.45761713	     18.62890685	      0.21377850	    -79.64037624	     14.67983974	     -8.76019720	      8.45623656
      4.34500000	    -18.72847257	     11.26893638	     -7.46755087	     -0.76565354	     -0.03707806	     -0.28927076	     23.04430369	     -8.08244653	      3.75119203	    -64.82160147	    -30.99760303	    -22.96393354	    -10.84327785	     39.40308404	     13.00237474	      1.94695320	    -27.82309583	     18.93262225	      0.16008063	    -79.62237944	     14.70328661	     -8.75427044	      8.31355814
      4.35000000	    -18.67866850	     11.17374945	     -7.39754885	     -0.75809209	     -0.03553506	     -0.28914223	     24.07527357	     -7.64102029	      3.85703728	    -65.80905115	    -28.12646536	    -23.25371217	    -16.74394634	     38.42979925	     13.06372612	      2.17258329	    -27.26675669	     19.35583823	      0.32589748	    -79.74932483	     14.69474320	     -8.66018079	      8.04950622
      4.35500000	    -18.65380430	     11.16632675	     -7.41953431	     -0.75054139	     -0.03396173	     -0.28915541	     25.09468478	     -7.27664253	      4.27397145	    -66.47867946	    -26.79669769	    -23.93661296	    -16.68257868	     37.44286809	     13.19255145	      2.43384364	    -26.56700400	     19.55955380	      0.18065696	    -79.71638250	     14.74774670	     -8.59148775	      7.93516754
      4.36000000	    -18.60115798	     11.12008726	     -7.37965377	     -0.74298434	     -0.03232415	     -0.28920619	     26.02799514	     -6.92395857	      4.57747240	    -67.03707891	    -25.32429170	    -24.37398462	    -16.74066119	     36.39296041	     13.32991361	      2.80733953	    -25.82610219	     19.70133203	      0.01412373	    -79.66724719	     14.75466486	     -8.51217856	      7.73212185
      4.36500000	    -18.54497645	     11.03306644	     -7.33230295	     -0.73546050	     -0.03065611	     -0.28922513	     26.92613834	     -6.55266856	      4.80288358	    -67.48060690	    -23.88137586	    -24.74672814	    -16.84359069	     35.31486560	     13.43066843	      3.23139045	    -25.05136624	     19.81068965	     -0.19629439	    -79.58779293	     14.75027378	     -8.39912064	      7.49315454
      4.37000000	    -18.35461511	     10.96755329	     -7.35200800	     -0.72789212	     -0.02876503	     -0.28899404	     27.68523707	     -6.20716655	      4.94306631	    -67.86610384	    -21.94388556	    -24.94537005	    -19.25202302	     34.03253189	     13.52840665	      3.66473196	    -24.15081049	     19.68398413	     -0.47499017	    -78.75134490	     14.62385890	     -8.33699786	      7.32978350
      4.37500000	    -18.43505809	     10.75534417	     -7.16002977	     -0.72051638	     -0.02725190	     -0.28911999	     28.63012074	     -5.78403407	      4.95501738	    -68.09532912	    -20.41579332	    -24.99954266	    -18.92031961	     33.10348326	     13.53702237	      4.23126394	    -23.42569632	     19.75426816	     -0.61581546	    -78.67991332	     14.71119152	     -8.12852445	      6.89390573
      4.38000000	    -18.37959669	     10.57697028	     -7.06012179	     -0.71308667	     -0.02553002	     -0.28914676	     29.41264534	     -5.40844781	      5.00996163	    -68.18858140	    -18.89596937	    -24.99237786	    -18.42424876	     31.96276612	     13.56416902	      4.86310964	    -22.54884426	     19.68057019	     -0.96382610	    -78.58088399	     14.68030896	     -7.95241546	      6.58874667
      4.38500000	    -18.32613898	     10.35719620	     -6.92673357	     -0.70569853	     -0.02380461	     -0.28919695	     30.14889596	     -5.02733564	      5.00032363	    -68.15512525	    -17.37022465	    -24.88862836	    -17.66120369	     30.81391490	     13.55549950	      5.55776499	    -21.66232152	     19.55482290	     -1.32492839	    -78.42098091	     14.63652649	     -7.75125602	      6.23547714
